<?xml version="1.0" encoding="UTF-8" standalone="no"?>
<!-- Created with Inkscape (http://www.inkscape.org/) -->

<svg
   version="1.0"
   width="468"
   height="500"
   id="svg7966"
   inkscape:version="1.4.4 (dcaf3e7d9e, 2026-05-05)"
   sodipodi:docname="Army-USA-OR-03_(Army_greens).svg"
   inkscape:export-filename="Army-USA-OR-03_(Army_greens).png"
   inkscape:export-xdpi="96"
   inkscape:export-ydpi="96"
   xmlns:inkscape="http://www.inkscape.org/namespaces/inkscape"
   xmlns:sodipodi="http://sodipodi.sourceforge.net/DTD/sodipodi-0.dtd"
   xmlns="http://www.w3.org/2000/svg"
   xmlns:svg="http://www.w3.org/2000/svg"
   xmlns:rdf="http://www.w3.org/1999/02/22-rdf-syntax-ns#"
   xmlns:cc="http://creativecommons.org/ns#"
   xmlns:dc="http://purl.org/dc/elements/1.1/">
  <sodipodi:namedview
     pagecolor="#ffffff"
     bordercolor="#666666"
     borderopacity="1"
     objecttolerance="10"
     gridtolerance="10"
     guidetolerance="10"
     inkscape:pageopacity="0"
     inkscape:pageshadow="2"
     inkscape:window-width="1920"
     inkscape:window-height="1006"
     id="namedview8"
     showgrid="false"
     fit-margin-top="0"
     fit-margin-left="0"
     fit-margin-right="0"
     fit-margin-bottom="0"
     inkscape:zoom="1"
     inkscape:cx="340"
     inkscape:cy="342.5"
     inkscape:window-x="0"
     inkscape:window-y="0"
     inkscape:window-maximized="1"
     inkscape:current-layer="g3041"
     inkscape:showpageshadow="0"
     inkscape:pagecheckerboard="0"
     inkscape:deskcolor="#505050"
     showguides="true">
    <sodipodi:guide
       position="46.89454,498.35937"
       orientation="-1,0"
       id="guide1"
       inkscape:locked="false"
       inkscape:label=""
       inkscape:color="rgb(0,134,229)" />
  </sodipodi:namedview>
  <defs
     id="defs7968" />
  <metadata
     id="metadata7971">
    <rdf:RDF>
      <cc:Work
         rdf:about="">
        <dc:format>image/svg+xml</dc:format>
        <dc:type
           rdf:resource="http://purl.org/dc/dcmitype/StillImage" />
        <dc:title />
      </cc:Work>
    </rdf:RDF>
  </metadata>
  <g
     transform="translate(-307.9375,-527.03125)"
     id="g3041"
     style="fill:#f4e6d9;fill-opacity:1;stroke:none">
    <g
       id="g1"
       transform="matrix(5.0000001,0,0,5.0000001,-1232.0185,-2115.0678)">
      <path
         d="m 354.83495,528.4198 c -11.53031,22.48039 -25.68117,35.31688 -46.84375,49.40879 v 28.75995 c 0.32305,0.42175 0.66272,0.82499 1,1.23741 10.18512,12.45328 26.77492,20.59379 45.53125,20.59377 0.0624,-10e-6 0.12516,1.8e-4 0.1875,0 0.0624,1.7e-4 0.12511,0 0.1875,0 18.75634,10e-6 35.34614,-8.14048 45.53125,-20.59377 0.33728,-0.41243 0.67696,-0.81566 1,-1.23741 V 577.82859 C 380.26613,563.73667 367.11527,551.01018 354.83495,528.4198 Z"
         id="path7835"
         style="fill:#373e48;fill-opacity:1;stroke:none;stroke-width:0;stroke-miterlimit:4;stroke-dasharray:none;stroke-opacity:1"
         inkscape:connector-curvature="0"
         sodipodi:nodetypes="ccccscssccc" />
      <path
         d="m 354.9375,534.2368 c -9.80201,17.41094 -26.02909,32.57439 -43.375,44.32225 v 11.27307 c 16.36319,-9.973 32.44222,-22.65506 43.375,-37.31096 10.93278,14.6559 27.01184,27.33796 43.375,37.31096 v -11.27307 c -17.34591,-11.74786 -33.57296,-26.91131 -43.375,-44.32225 z"
         id="path7806"
         style="fill:#f4e6d9;fill-opacity:1;stroke:none;stroke-width:0;stroke-miterlimit:4;stroke-dasharray:none;stroke-opacity:1"
         inkscape:connector-curvature="0"
         sodipodi:nodetypes="ccccccc" />
      <path
         d="m 354.9375,560.35723 c -11.28393,13.68332 -27.32034,25.50249 -43.375,34.83647 v 10.20073 c 15.63772,-8.36265 31.59998,-18.90072 43.375,-31.12461 11.77503,12.22389 27.7373,22.76196 43.375,31.12461 V 595.1937 c -16.05466,-9.33398 -32.09105,-21.15315 -43.375,-34.83647 z"
         id="path7808"
         style="fill:#f4e6d9;fill-opacity:1;stroke:none;stroke-width:0;stroke-miterlimit:4;stroke-dasharray:none;stroke-opacity:1"
         inkscape:connector-curvature="0"
         sodipodi:nodetypes="ccccccc" />
      <path
         d="m 354.82766,590.45598 4.07454,12.87726 13.50611,-0.10412 -10.98791,7.8544 4.2727,12.81288 -10.86544,-8.02297 -10.86544,8.02297 4.2727,-12.81288 -10.98791,-7.8544 13.50612,0.10412 z"
         id="path7814"
         style="fill:#f4e6d9;fill-opacity:1;stroke:none;stroke-width:0;stroke-miterlimit:4;stroke-dasharray:none;stroke-opacity:1"
         inkscape:connector-curvature="0" />
    </g>
  </g>
</svg>
